<mxfile host="app.diagrams.net" modified="2022-03-07T03:15:57.046Z" agent="5.0 (Macintosh; Intel Mac OS X 10_15_7) AppleWebKit/537.36 (KHTML, like Gecko) Chrome/98.0.4758.109 Safari/537.36" etag="sZhQiWSJqMVQqUxoVxee" version="16.6.4" type="github">
  <diagram id="PaMLHSJBzjiJ5cQbQYLu" name="Page-1">
    <mxGraphModel dx="1530" dy="855" grid="1" gridSize="10" guides="1" tooltips="1" connect="1" arrows="1" fold="1" page="1" pageScale="1" pageWidth="827" pageHeight="1169" math="0" shadow="0">
      <root>
        <mxCell id="0" />
        <mxCell id="1" parent="0" />
        <mxCell id="BWl7ARk_XlkrGarGOwxK-12" value="&lt;font style=&quot;font-size: 16px&quot;&gt;&lt;font color=&quot;#ffffff&quot;&gt;&lt;font style=&quot;font-size: 16px&quot;&gt;&amp;nbsp; &amp;nbsp; mutfold后端&lt;br&gt;&lt;br&gt;&lt;br&gt;&lt;/font&gt;&lt;br&gt;&lt;br&gt;&lt;br&gt;&lt;br&gt;&lt;br&gt;&lt;br&gt;&lt;br&gt;&lt;/font&gt;&lt;br&gt;&lt;/font&gt;" style="rounded=0;whiteSpace=wrap;html=1;fillColor=#d5e8d4;strokeColor=none;align=left;" parent="1" vertex="1">
          <mxGeometry x="690" y="510" width="640" height="250" as="geometry" />
        </mxCell>
        <mxCell id="-6lMQvuyPs8rFw9tTsgk-23" value="&lt;div style=&quot;font-size: 16px&quot;&gt;&lt;font style=&quot;font-size: 16px&quot; color=&quot;#ffffff&quot;&gt;&amp;nbsp; &amp;nbsp; 腾讯云&lt;/font&gt;&lt;/div&gt;&lt;div style=&quot;font-size: 16px&quot;&gt;&lt;font style=&quot;font-size: 16px&quot; color=&quot;#ffffff&quot;&gt;&lt;br&gt;&lt;/font&gt;&lt;/div&gt;&lt;font style=&quot;font-size: 16px&quot;&gt;&lt;font color=&quot;#ffffff&quot;&gt;&lt;br&gt;&lt;br&gt;&lt;br&gt;&lt;br&gt;&lt;br&gt;&lt;br&gt;&lt;br&gt;&lt;br&gt;&lt;br&gt;&lt;/font&gt;&lt;br&gt;&lt;/font&gt;" style="rounded=0;whiteSpace=wrap;html=1;align=left;fillColor=#dae8fc;strokeColor=none;" vertex="1" parent="1">
          <mxGeometry x="690" y="160" width="640" height="270" as="geometry" />
        </mxCell>
        <mxCell id="BWl7ARk_XlkrGarGOwxK-1" value="1、准备fasta文件，上传至cos" style="text;whiteSpace=wrap;html=1;" parent="1" vertex="1">
          <mxGeometry x="470" y="330" width="180" height="30" as="geometry" />
        </mxCell>
        <mxCell id="BWl7ARk_XlkrGarGOwxK-2" value="2、创建计算任务" style="text;whiteSpace=wrap;html=1;" parent="1" vertex="1">
          <mxGeometry x="540" y="530" width="100" height="30" as="geometry" />
        </mxCell>
        <mxCell id="BWl7ARk_XlkrGarGOwxK-4" value="fasta文件" style="shape=image;html=1;verticalAlign=top;verticalLabelPosition=bottom;labelBackgroundColor=#ffffff;imageAspect=0;aspect=fixed;image=https://cdn2.iconfinder.com/data/icons/essential-web-1-1/50/files-pages-print-copy-papers-128.png" parent="1" vertex="1">
          <mxGeometry x="430" y="410" width="40" height="40" as="geometry" />
        </mxCell>
        <mxCell id="BWl7ARk_XlkrGarGOwxK-5" value="COS" style="shape=cylinder3;whiteSpace=wrap;html=1;boundedLbl=1;backgroundOutline=1;size=15;" parent="1" vertex="1">
          <mxGeometry x="750" y="310" width="100" height="80" as="geometry" />
        </mxCell>
        <mxCell id="BWl7ARk_XlkrGarGOwxK-11" style="edgeStyle=orthogonalEdgeStyle;rounded=0;orthogonalLoop=1;jettySize=auto;html=1;entryX=0;entryY=0;entryDx=0;entryDy=52.5;entryPerimeter=0;exitX=0.5;exitY=0;exitDx=0;exitDy=0;" parent="1" source="BWl7ARk_XlkrGarGOwxK-6" target="BWl7ARk_XlkrGarGOwxK-5" edge="1">
          <mxGeometry relative="1" as="geometry">
            <Array as="points">
              <mxPoint x="420" y="363" />
              <mxPoint x="450" y="363" />
            </Array>
          </mxGeometry>
        </mxCell>
        <mxCell id="BWl7ARk_XlkrGarGOwxK-16" style="edgeStyle=orthogonalEdgeStyle;rounded=0;orthogonalLoop=1;jettySize=auto;html=1;exitX=1;exitY=0.25;exitDx=0;exitDy=0;entryX=0;entryY=0.25;entryDx=0;entryDy=0;" parent="1" source="BWl7ARk_XlkrGarGOwxK-6" target="BWl7ARk_XlkrGarGOwxK-12" edge="1">
          <mxGeometry relative="1" as="geometry" />
        </mxCell>
        <mxCell id="-6lMQvuyPs8rFw9tTsgk-14" style="edgeStyle=orthogonalEdgeStyle;rounded=0;orthogonalLoop=1;jettySize=auto;html=1;exitX=1;exitY=0.75;exitDx=0;exitDy=0;entryX=0;entryY=0.75;entryDx=0;entryDy=0;startArrow=classic;startFill=1;" edge="1" parent="1" source="BWl7ARk_XlkrGarGOwxK-6" target="BWl7ARk_XlkrGarGOwxK-12">
          <mxGeometry relative="1" as="geometry" />
        </mxCell>
        <mxCell id="BWl7ARk_XlkrGarGOwxK-6" value="&lt;font style=&quot;font-size: 16px&quot; color=&quot;#ffffff&quot;&gt;mutfold前端&lt;/font&gt;" style="rounded=0;whiteSpace=wrap;html=1;fillColor=#ffe6cc;strokeColor=none;" parent="1" vertex="1">
          <mxGeometry x="340" y="510" width="140" height="250" as="geometry" />
        </mxCell>
        <mxCell id="BWl7ARk_XlkrGarGOwxK-9" style="edgeStyle=orthogonalEdgeStyle;rounded=0;orthogonalLoop=1;jettySize=auto;html=1;" parent="1" source="BWl7ARk_XlkrGarGOwxK-8" target="BWl7ARk_XlkrGarGOwxK-6" edge="1">
          <mxGeometry relative="1" as="geometry" />
        </mxCell>
        <mxCell id="BWl7ARk_XlkrGarGOwxK-8" value="用户" style="shape=umlActor;verticalLabelPosition=bottom;verticalAlign=top;html=1;outlineConnect=0;" parent="1" vertex="1">
          <mxGeometry x="220" y="605" width="30" height="60" as="geometry" />
        </mxCell>
        <mxCell id="-6lMQvuyPs8rFw9tTsgk-19" style="edgeStyle=orthogonalEdgeStyle;rounded=0;orthogonalLoop=1;jettySize=auto;html=1;exitX=0.5;exitY=0;exitDx=0;exitDy=0;entryX=0.5;entryY=1;entryDx=0;entryDy=0;entryPerimeter=0;startArrow=classic;startFill=1;" edge="1" parent="1" source="BWl7ARk_XlkrGarGOwxK-12" target="BWl7ARk_XlkrGarGOwxK-5">
          <mxGeometry relative="1" as="geometry">
            <Array as="points">
              <mxPoint x="1010" y="460" />
              <mxPoint x="800" y="460" />
            </Array>
          </mxGeometry>
        </mxCell>
        <mxCell id="BWl7ARk_XlkrGarGOwxK-13" value="" style="sketch=0;pointerEvents=1;shadow=0;dashed=0;html=1;strokeColor=none;fillColor=#005F4B;labelPosition=center;verticalLabelPosition=bottom;verticalAlign=top;align=center;outlineConnect=0;shape=mxgraph.veeam2.vm_snapshot;" parent="1" vertex="1">
          <mxGeometry x="1125" y="254" width="38" height="38" as="geometry" />
        </mxCell>
        <mxCell id="-6lMQvuyPs8rFw9tTsgk-11" style="edgeStyle=orthogonalEdgeStyle;rounded=0;orthogonalLoop=1;jettySize=auto;html=1;startArrow=classic;startFill=1;" edge="1" parent="1" source="BWl7ARk_XlkrGarGOwxK-14" target="BWl7ARk_XlkrGarGOwxK-15">
          <mxGeometry relative="1" as="geometry" />
        </mxCell>
        <mxCell id="-6lMQvuyPs8rFw9tTsgk-13" style="edgeStyle=orthogonalEdgeStyle;rounded=0;orthogonalLoop=1;jettySize=auto;html=1;startArrow=classic;startFill=1;" edge="1" parent="1" source="BWl7ARk_XlkrGarGOwxK-14" target="BWl7ARk_XlkrGarGOwxK-5">
          <mxGeometry relative="1" as="geometry" />
        </mxCell>
        <mxCell id="BWl7ARk_XlkrGarGOwxK-14" value="CVM" style="sketch=0;pointerEvents=1;shadow=0;dashed=0;html=1;strokeColor=none;fillColor=#005F4B;labelPosition=center;verticalLabelPosition=bottom;verticalAlign=top;align=center;outlineConnect=0;shape=mxgraph.veeam2.server_cluster;" parent="1" vertex="1">
          <mxGeometry x="1030" y="319" width="140" height="62" as="geometry" />
        </mxCell>
        <mxCell id="BWl7ARk_XlkrGarGOwxK-15" value="" style="sketch=0;aspect=fixed;html=1;points=[];align=center;image;fontSize=12;image=img/lib/mscae/Docker.svg;" parent="1" vertex="1">
          <mxGeometry x="1075" y="180" width="50" height="41" as="geometry" />
        </mxCell>
        <mxCell id="-6lMQvuyPs8rFw9tTsgk-2" value="5、定时触发计算任务" style="text;whiteSpace=wrap;html=1;" vertex="1" parent="1">
          <mxGeometry x="1170" y="555" width="121" height="30" as="geometry" />
        </mxCell>
        <mxCell id="-6lMQvuyPs8rFw9tTsgk-8" style="edgeStyle=orthogonalEdgeStyle;rounded=0;orthogonalLoop=1;jettySize=auto;html=1;" edge="1" parent="1" source="-6lMQvuyPs8rFw9tTsgk-3" target="-6lMQvuyPs8rFw9tTsgk-7">
          <mxGeometry relative="1" as="geometry" />
        </mxCell>
        <mxCell id="-6lMQvuyPs8rFw9tTsgk-24" style="rounded=0;orthogonalLoop=1;jettySize=auto;html=1;entryX=0;entryY=0.25;entryDx=0;entryDy=0;fontSize=16;startArrow=classic;startFill=1;endArrow=none;endFill=0;edgeStyle=orthogonalEdgeStyle;" edge="1" parent="1" source="-6lMQvuyPs8rFw9tTsgk-3" target="BWl7ARk_XlkrGarGOwxK-12">
          <mxGeometry relative="1" as="geometry">
            <Array as="points">
              <mxPoint x="830" y="573" />
              <mxPoint x="690" y="573" />
            </Array>
          </mxGeometry>
        </mxCell>
        <mxCell id="-6lMQvuyPs8rFw9tTsgk-3" value="MySQL" style="shape=cylinder3;whiteSpace=wrap;html=1;boundedLbl=1;backgroundOutline=1;size=15;" vertex="1" parent="1">
          <mxGeometry x="780" y="620" width="100" height="80" as="geometry" />
        </mxCell>
        <mxCell id="-6lMQvuyPs8rFw9tTsgk-6" value="3、持久化计算任务" style="text;whiteSpace=wrap;html=1;" vertex="1" parent="1">
          <mxGeometry x="707" y="585" width="120" height="30" as="geometry" />
        </mxCell>
        <mxCell id="-6lMQvuyPs8rFw9tTsgk-10" style="edgeStyle=orthogonalEdgeStyle;rounded=0;orthogonalLoop=1;jettySize=auto;html=1;exitX=1;exitY=0.5;exitDx=0;exitDy=0;" edge="1" parent="1" source="-6lMQvuyPs8rFw9tTsgk-7" target="BWl7ARk_XlkrGarGOwxK-14">
          <mxGeometry relative="1" as="geometry">
            <Array as="points">
              <mxPoint x="1300" y="660" />
              <mxPoint x="1300" y="349" />
            </Array>
          </mxGeometry>
        </mxCell>
        <mxCell id="-6lMQvuyPs8rFw9tTsgk-7" value="task6-&amp;gt;task5-&amp;gt;task4-&amp;gt;..." style="shape=step;perimeter=stepPerimeter;whiteSpace=wrap;html=1;fixedSize=1;" vertex="1" parent="1">
          <mxGeometry x="1060" y="620" width="195" height="80" as="geometry" />
        </mxCell>
        <mxCell id="-6lMQvuyPs8rFw9tTsgk-9" value="4、加入计算任务队列" style="text;whiteSpace=wrap;html=1;" vertex="1" parent="1">
          <mxGeometry x="915" y="625" width="120" height="30" as="geometry" />
        </mxCell>
        <mxCell id="-6lMQvuyPs8rFw9tTsgk-12" value="6、指定镜像和cos，执行计算任务" style="text;whiteSpace=wrap;html=1;" vertex="1" parent="1">
          <mxGeometry x="870" y="270" width="210" height="30" as="geometry" />
        </mxCell>
        <mxCell id="-6lMQvuyPs8rFw9tTsgk-16" value="7、查询计算任务" style="text;whiteSpace=wrap;html=1;" vertex="1" parent="1">
          <mxGeometry x="540" y="650" width="100" height="30" as="geometry" />
        </mxCell>
        <mxCell id="-6lMQvuyPs8rFw9tTsgk-17" value="9、返回计算结果" style="text;whiteSpace=wrap;html=1;" vertex="1" parent="1">
          <mxGeometry x="540" y="700" width="100" height="30" as="geometry" />
        </mxCell>
        <mxCell id="-6lMQvuyPs8rFw9tTsgk-20" value="8、查询cos上的计算文件" style="text;whiteSpace=wrap;html=1;" vertex="1" parent="1">
          <mxGeometry x="840" y="470" width="150" height="30" as="geometry" />
        </mxCell>
        <mxCell id="-6lMQvuyPs8rFw9tTsgk-26" value="0、访问" style="text;whiteSpace=wrap;html=1;" vertex="1" parent="1">
          <mxGeometry x="270" y="605" width="60" height="30" as="geometry" />
        </mxCell>
      </root>
    </mxGraphModel>
  </diagram>
</mxfile>
